<svg width="80" height="76" viewBox="0 0 80 76" fill="none" xmlns="http://www.w3.org/2000/svg">
<path d="M17.9625 51.2729C26.6357 51.8344 28.4893 51.6308 28.4893 53.2984C28.4893 56.6912 16.7839 56.7014 16.7839 53.5563C16.7857 52.6928 17.3714 51.9616 17.9625 51.2729V51.2729ZM22.9536 31.4857C17.1875 31.4857 16.9268 39.0297 22.8196 39.0297C28.625 39.0297 28.4821 31.4857 22.9536 31.4857V31.4857ZM80 8.14286V67.8571C80 70.0168 79.0969 72.0879 77.4895 73.615C75.882 75.1421 73.7019 76 71.4286 76H8.57143C6.29814 76 4.11797 75.1421 2.51051 73.615C0.903059 72.0879 0 70.0168 0 67.8571L0 8.14286C0 5.98324 0.903059 3.91207 2.51051 2.38499C4.11797 0.857906 6.29814 0 8.57143 0H71.4286C73.7019 0 75.882 0.857906 77.4895 2.38499C79.0969 3.91207 80 5.98324 80 8.14286V8.14286ZM39.4643 19.9008C39.4643 22.3589 40.9607 23.7822 43.5464 23.7822C46.1786 23.7822 47.6768 22.3589 47.6768 19.9008C47.6768 17.4427 46.1821 16.1161 43.55 16.1161C40.9643 16.1161 39.4643 17.4461 39.4643 19.9008ZM35.5679 27.6518H26.7196C22.2554 26.5406 12.1554 26.829 12.1554 35.5826C12.1554 38.7719 13.8339 41.0112 16.0571 42.0477C13.2554 44.4854 11.9286 45.6339 11.9286 47.2625C11.9286 48.4279 12.4268 49.5052 13.925 50.1057C12.3357 51.5307 11.425 52.5621 11.425 54.5029C11.4286 57.9076 14.5589 59.8839 22.7714 59.8839C30.6679 59.8839 35.2482 57.0831 35.2482 52.1262C35.2482 45.9054 30.2071 46.1344 18.325 45.4456L19.8214 43.1673C22.8571 43.9714 33.0696 44.2242 33.0696 35.9694C33.0696 33.9862 32.2071 32.6071 31.3911 31.6146L35.5661 31.3127L35.5679 27.6518ZM50.6286 46.2854L48.3071 45.9834C47.625 45.8969 47.5804 45.8137 47.5804 45.1199V27.2311H38.1875L37.6893 30.7206C40.5018 31.6621 40.725 31.5451 40.725 32.4459V45.125C40.725 46.0784 40.6696 45.902 37.6893 46.2904V49.6935H50.6214L50.6286 46.2854ZM68.5714 48.0089L67.3446 44.214C60.0357 46.8214 60.5857 42.1087 60.5857 41.3759V31.0752H67.3446V26.7646H60.9482C60.4357 26.7646 60.5911 27.1921 60.5911 20.2112H56.2732C55.775 24.9104 54.1875 26.807 50.2018 27.2379V31.0752C53.8571 31.0752 53.7411 30.931 53.7411 31.5061V42.7992C53.7411 47.6713 55.7821 49.7393 61.1821 49.7393C63.7625 49.7393 66.6196 48.9199 68.5714 48.0089V48.0089Z" fill="black"/>
</svg>
