<svg width="80" height="77" viewBox="0 0 80 77" fill="none" xmlns="http://www.w3.org/2000/svg">
<path d="M71.4286 0H8.57143C3.83929 0 0 3.69531 0 8.25V68.75C0 73.3047 3.83929 77 8.57143 77H71.4286C76.1607 77 80 73.3047 80 68.75V8.25C80 3.69531 76.1607 0 71.4286 0ZM49.5179 65.9484C48.0179 66.2063 47.4643 65.3125 47.4643 64.5734C47.4643 63.6453 47.5 58.9016 47.5 55.0687C47.5 52.3875 46.5714 50.6859 45.4821 49.7922C52.0893 49.0875 59.0536 48.2109 59.0536 37.2281C59.0536 34.1 57.8929 32.5359 56 30.525C56.3036 29.7859 57.3214 26.7438 55.6964 22.7906C53.2143 22.0516 47.5357 25.8672 47.5357 25.8672C45.1786 25.2312 42.625 24.9047 40.1071 24.9047C37.5893 24.9047 35.0357 25.2312 32.6786 25.8672C32.6786 25.8672 27 22.0516 24.5179 22.7906C22.8929 26.7266 23.8929 29.7688 24.2143 30.525C22.3214 32.5359 21.4286 34.1 21.4286 37.2281C21.4286 48.1594 28.0893 49.0875 34.6964 49.7922C33.8393 50.5313 33.0714 51.8031 32.8036 53.625C31.1071 54.3641 26.7679 55.6359 24.1786 51.2359C22.5536 48.5203 19.625 48.2969 19.625 48.2969C16.7321 48.2625 19.4286 50.05 19.4286 50.05C21.3571 50.9094 22.7143 54.2094 22.7143 54.2094C24.4464 59.3141 32.7321 57.5953 32.7321 57.5953C32.7321 59.9844 32.7679 63.8688 32.7679 64.5734C32.7679 65.3125 32.2321 66.2063 30.7143 65.9484C18.9286 62.15 10.6786 51.3562 10.6786 38.7406C10.6786 22.9625 23.2143 10.9828 39.6071 10.9828C56 10.9828 69.2857 22.9625 69.2857 38.7406C69.3036 51.3562 61.3036 62.1672 49.5179 65.9484ZM32 55.4469C31.6607 55.5156 31.3393 55.3781 31.3036 55.1547C31.2679 54.8969 31.5 54.6734 31.8393 54.6047C32.1786 54.5703 32.5 54.7078 32.5357 54.9313C32.5893 55.1547 32.3571 55.3781 32 55.4469ZM30.3036 55.2922C30.3036 55.5156 30.0357 55.7047 29.6786 55.7047C29.2857 55.7391 29.0179 55.55 29.0179 55.2922C29.0179 55.0688 29.2857 54.8797 29.6429 54.8797C29.9821 54.8453 30.3036 55.0344 30.3036 55.2922ZM27.8571 55.1031C27.7857 55.3266 27.4286 55.4297 27.125 55.3266C26.7857 55.2578 26.5536 55 26.625 54.7766C26.6964 54.5531 27.0536 54.45 27.3571 54.5188C27.7143 54.6219 27.9464 54.8797 27.8571 55.1031ZM25.6607 54.175C25.5 54.3641 25.1607 54.3297 24.8929 54.0719C24.625 53.8484 24.5536 53.5219 24.7321 53.3672C24.8929 53.1781 25.2321 53.2125 25.5 53.4703C25.7321 53.6938 25.8214 54.0375 25.6607 54.175ZM24.0357 52.6109C23.875 52.7141 23.5714 52.6109 23.375 52.3531C23.1786 52.0953 23.1786 51.8031 23.375 51.6828C23.5714 51.5281 23.875 51.6484 24.0357 51.9062C24.2321 52.1641 24.2321 52.4734 24.0357 52.6109V52.6109ZM22.875 50.9437C22.7143 51.0984 22.4464 51.0125 22.25 50.8406C22.0536 50.6172 22.0179 50.3594 22.1786 50.2391C22.3393 50.0844 22.6071 50.1703 22.8036 50.3422C23 50.5656 23.0357 50.8234 22.875 50.9437ZM21.6786 49.6719C21.6071 49.8266 21.375 49.8609 21.1786 49.7406C20.9464 49.6375 20.8393 49.4484 20.9107 49.2937C20.9821 49.1906 21.1786 49.1391 21.4107 49.225C21.6429 49.3453 21.75 49.5344 21.6786 49.6719Z" fill="black"/>
</svg>

