<svg width="87" height="76" viewBox="0 0 87 76" fill="none" xmlns="http://www.w3.org/2000/svg">
<path d="M17.0488 0C7.67327 0 0 6.70294 0 14.8932V61.1093C0 69.2993 7.6731 76 17.0488 76H69.954C79.3296 76 87 69.2994 87 61.1093V14.8932C87 6.70309 79.3296 0 69.954 0H17.0488ZM21.3368 12.5415C25.8321 12.5415 28.601 15.1195 28.6865 18.5082C28.6865 21.8221 25.8319 24.4726 21.2498 24.4726H21.1655C16.7557 24.4726 13.9055 21.8223 13.9055 18.5082C13.9055 15.1196 16.8419 12.5415 21.3367 12.5415H21.3368ZM60.0757 28.38C68.7211 28.38 75.202 33.3162 75.202 43.9239V63.7267H62.0633V45.2516C62.0633 40.609 60.1618 37.4416 55.407 37.4416C51.7772 37.4416 49.6136 39.5765 48.6637 41.6388C48.3166 42.3767 48.2313 43.4071 48.2313 44.4393V63.7267H35.0927C35.0927 63.7267 35.2651 32.4305 35.0927 29.1899H48.234V34.0807C49.98 31.7274 53.1031 28.3799 60.0757 28.3799V28.38ZM14.6804 29.1924H27.8191V63.7269H14.6804V29.1924V29.1924Z" fill="black"/>
</svg>
