<svg width="70" height="68" viewBox="0 0 70 68" fill="none" xmlns="http://www.w3.org/2000/svg">
<path d="M63 68H7C5.14348 68 3.36301 67.2715 2.05025 65.9747C0.737498 64.6779 0 62.9191 0 61.0851V23.2227C0.0581824 22.0798 0.398227 20.9683 0.99054 19.9849C1.58285 19.0014 2.40949 18.1759 3.3985 17.5801L31.3985 0.984401C32.486 0.340247 33.7302 0 34.9983 0C36.2663 0 37.5105 0.340247 38.598 0.984401L66.598 17.5801C68.7015 18.8352 69.993 21.0825 70 23.5096V61.0851C70 62.9191 69.2625 64.6779 67.9497 65.9747C66.637 67.2715 64.8565 68 63 68ZM7 26.0543V61.0851H63V26.0543L35 44.4929L7 26.0543ZM35 6.91391L11.606 20.7783L35 36.1846L58.3905 20.7783L35 6.91391Z" fill="black"/>
</svg>

