<svg width="80" height="77" viewBox="0 0 80 77" fill="none" xmlns="http://www.w3.org/2000/svg">
<path d="M72 77H8C5.87827 77 3.84344 76.175 2.34315 74.7066C0.842854 73.2382 0 71.2466 0 69.1699V26.2963C0.0664941 25.0021 0.455117 23.7435 1.13205 22.6299C1.80897 21.5163 2.7537 20.5815 3.884 19.9069L35.884 1.11469C37.1269 0.38528 38.5488 0 39.998 0C41.4472 0 42.8691 0.38528 44.112 1.11469L76.112 19.9069C78.516 21.3281 79.992 23.8728 80 26.6212V69.1699C80 71.2466 79.1571 73.2382 77.6569 74.7066C76.1566 76.175 74.1217 77 72 77ZM8 29.5027V69.1699H72V29.5027L40 50.3816L8 29.5027ZM40 7.82899L13.264 23.5283L40 40.9738L66.732 23.5283L40 7.82899V7.82899Z" fill="black"/>
</svg>


